<svg width="562" height="365" viewBox="0 0 562 365" fill="none" xmlns="http://www.w3.org/2000/svg">
<path d="M427.708 121.923C421.765 122.851 416 124.216 410.437 125.979L410.552 190.325C417.959 184.695 426.828 180.769 436.664 179.232C468.309 174.285 497.983 195.937 502.929 227.585C506.397 249.771 496.792 270.985 479.833 283.392L489.3 344.036C538.096 324.252 568.72 272.892 560.237 218.627C551.295 161.401 501.921 120.513 445.756 120.515C439.804 120.515 433.772 120.975 427.708 121.923Z" fill="url(#paint0_linear_113_10)"/>
<path d="M433.929 161.739C425.541 163.049 417.679 165.659 410.515 169.331L410.552 190.325C417.959 184.695 426.828 180.769 436.664 179.232C468.309 174.285 497.983 195.937 502.929 227.585C506.397 249.771 496.792 270.985 479.833 283.392L483.401 306.253C511.113 290.945 527.691 259.472 522.519 226.379C516.539 188.123 483.545 160.797 446.001 160.797C442.019 160.797 437.987 161.104 433.929 161.739Z" fill="url(#paint1_linear_113_10)"/>
<path d="M344.985 185.884V248.228V248.236C344.983 280.263 319.009 306.233 286.983 306.233C255.424 306.233 229.747 281.023 228.993 249.647H228.976V195.667H170.987L170.992 249.647H170.989C171.749 313.052 223.396 364.24 286.983 364.24C351.04 364.24 402.991 312.289 402.991 248.228V248.161L402.977 125.848C391.76 152.329 370.989 173.781 344.985 185.884Z" fill="url(#paint2_linear_113_10)"/>
<path d="M344.985 248.228V248.236C344.983 280.263 319.009 306.233 286.983 306.233C255.424 306.233 229.747 281.023 228.993 249.647H228.976V195.667H228.445C216.605 209.281 209.437 227.067 209.437 246.528C209.437 289.355 244.155 324.072 286.983 324.072C329.809 324.072 364.527 289.355 364.527 246.528C364.527 226.777 357.144 208.752 344.985 195.06V248.228Z" fill="url(#paint3_linear_113_10)"/>
<path d="M323.392 4.27861C273.512 16.1907 241.571 38.8506 227.167 76.3053V51.0426V3.97865H177.037V105.359C200.051 118.217 217.647 138.127 228.961 162.096L229.075 162.063C232.089 89.7773 272.577 56.716 313.599 56.716C323.392 56.716 325.005 55.4893 331.117 54.1093L346.672 0.522629C346.149 0.401291 345.627 0.282654 345.108 0.167984C344.408 0.0519867 343.739 -3.05176e-05 343.091 -3.05176e-05C328.323 2.76526 331.823 2.26526 323.392 4.27861Z" fill="url(#paint4_linear_113_10)"/>
<path d="M0 214.709C0 278.767 51.9493 330.72 116.008 330.72L116.077 330.719L194.277 330.711C179.523 314.755 169.001 294.827 164.496 272.713H116.008H116.004C83.976 272.711 58.004 246.737 58.004 214.709C58.004 182.679 83.9787 156.704 116.008 156.704C138.465 156.704 157.941 169.469 167.581 188.141L228.959 188.153C216.948 136.887 170.932 98.6986 116.008 98.6986C51.9493 98.6986 0 150.649 0 214.709Z" fill="url(#paint5_linear_113_10)"/>
<path d="M40.2974 214.709C40.2974 257.536 75.016 292.253 117.843 292.253C135.691 292.253 152.129 286.224 165.235 276.091C164.973 274.972 164.727 273.844 164.496 272.713H116.008H116.004C83.976 272.711 58.004 246.737 58.004 214.709C58.004 182.679 83.9787 156.704 116.008 156.704C138.465 156.704 157.941 169.469 167.581 188.141L190.719 188.147C179.873 158.403 151.337 137.164 117.843 137.164C75.016 137.164 40.2974 171.883 40.2974 214.709Z" fill="url(#paint6_linear_113_10)"/>
<path d="M321.767 4.30093C272.368 15.5364 240.734 36.9094 226.469 72.2368V48.4089V4.01801H176.823V99.6399C199.614 111.768 217.041 130.547 228.246 153.155L228.359 153.123C231.344 84.9436 271.442 53.76 312.068 53.76C321.767 53.76 323.365 52.603 329.418 51.3014L344.823 0.75827C344.305 0.643829 343.787 0.531921 343.274 0.423767C342.58 0.314362 341.918 0.265305 341.276 0.265305C326.65 2.87354 330.116 2.40193 321.767 4.30093Z" fill="url(#paint7_linear_113_10)"/>
<defs>
<linearGradient id="paint0_linear_113_10" x1="501.901" y1="130.267" x2="448.161" y2="329.2" gradientUnits="userSpaceOnUse">
<stop/>
<stop offset="0.3"/>
<stop offset="0.7" stop-color="#414142"/>
<stop offset="1" stop-color="#414142"/>
</linearGradient>
<linearGradient id="paint1_linear_113_10" x1="435.585" y1="308.526" x2="476.627" y2="166.494" gradientUnits="userSpaceOnUse">
<stop stop-color="#808285"/>
<stop offset="0.35" stop-color="#808285"/>
<stop offset="0.65" stop-color="#6D6F71"/>
<stop offset="1" stop-color="#6D6F71"/>
</linearGradient>
<linearGradient id="paint2_linear_113_10" x1="233.205" y1="113.644" x2="377.758" y2="354.22" gradientUnits="userSpaceOnUse">
<stop stop-color="#153858"/>
<stop offset="0.23" stop-color="#2D8AE1"/>
<stop offset="0.77" stop-color="#135592"/>
<stop offset="1" stop-color="#083B60"/>
</linearGradient>
<linearGradient id="paint3_linear_113_10" x1="247.037" y1="313.007" x2="326.926" y2="180.049" gradientUnits="userSpaceOnUse">
<stop stop-color="#2B7FCD"/>
<stop offset="0.23" stop-color="#5C99F4"/>
<stop offset="0.77" stop-color="#3E78CE"/>
<stop offset="1" stop-color="#286FD9"/>
</linearGradient>
<linearGradient id="paint4_linear_113_10" x1="177.036" y1="151.805" x2="346.674" y2="151.805" gradientUnits="userSpaceOnUse">
<stop stop-color="#8EA2B5"/>
<stop offset="0.23" stop-color="#4E8AC1"/>
<stop offset="0.77" stop-color="#11304D"/>
<stop offset="1" stop-color="#0587FF"/>
</linearGradient>
<linearGradient id="paint5_linear_113_10" x1="8.73048" y1="166.946" x2="220.734" y2="261.336" gradientUnits="userSpaceOnUse">
<stop/>
<stop offset="0.3"/>
<stop offset="0.7" stop-color="#414142"/>
<stop offset="1" stop-color="#414142"/>
</linearGradient>
<linearGradient id="paint6_linear_113_10" x1="188.139" y1="247.488" x2="47.5463" y2="181.929" gradientUnits="userSpaceOnUse">
<stop stop-color="#808285"/>
<stop offset="0.35" stop-color="#808285"/>
<stop offset="0.65" stop-color="#6D6F71"/>
<stop offset="1" stop-color="#6D6F71"/>
</linearGradient>
<linearGradient id="paint7_linear_113_10" x1="176.822" y1="143.449" x2="344.824" y2="143.449" gradientUnits="userSpaceOnUse">
<stop stop-color="#165CC7"/>
<stop offset="0.23" stop-color="#54AAFB"/>
<stop offset="0.77" stop-color="#247ACB"/>
<stop offset="1" stop-color="#1177D6"/>
</linearGradient>
</defs>
</svg>
