<svg width="1500" height="1920" viewBox="0 0 1500 1920" fill="none" xmlns="http://www.w3.org/2000/svg">
<g clip-path="url(#clip0_233_25)">
<rect width="1500" height="1920" rx="20" fill="#F9F6CC"/>
<ellipse cx="305" cy="352" rx="41" ry="39" fill="#A2DDFF" fill-opacity="0.13"/>
<ellipse cx="14" cy="430" rx="41" ry="39" fill="#A2DDFF" fill-opacity="0.13"/>
<path d="M359.288 950.352C361.88 950.736 364.424 951.312 366.92 952.08C369.512 952.752 371.816 953.568 373.832 954.528V960H325.88V954.528C327.704 953.472 329.624 952.608 331.64 951.936C333.752 951.264 335.768 950.736 337.688 950.352V868.848C335.48 868.464 333.368 867.936 331.352 867.264C329.336 866.496 327.512 865.632 325.88 864.672V859.2H344.024C347.864 859.2 352.232 859.008 357.128 858.624C362.12 858.24 366.68 858.048 370.808 858.048C375.896 858.048 380.84 858.576 385.64 859.632C390.536 860.592 394.856 862.272 398.6 864.672C402.44 867.072 405.512 870.288 407.816 874.32C410.12 878.256 411.272 883.2 411.272 889.152C411.272 894.816 410.12 899.712 407.816 903.84C405.608 907.968 402.632 911.376 398.888 914.064C395.144 916.752 390.824 918.768 385.928 920.112C381.032 921.36 375.992 921.984 370.808 921.984C370.328 921.984 369.56 921.984 368.504 921.984C367.448 921.984 366.296 921.984 365.048 921.984C363.896 921.888 362.744 921.84 361.592 921.84C360.536 921.744 359.768 921.648 359.288 921.552V950.352ZM367.064 867.408C365.144 867.408 363.608 867.504 362.456 867.696C361.4 867.792 360.344 867.984 359.288 868.272V912.048C360.152 912.336 361.448 912.528 363.176 912.624C364.904 912.624 366.296 912.624 367.352 912.624C369.944 912.624 372.44 912.192 374.84 911.328C377.24 910.464 379.352 909.12 381.176 907.296C383.096 905.472 384.632 903.12 385.784 900.24C386.936 897.36 387.512 893.904 387.512 889.872C387.512 882.192 385.64 876.528 381.896 872.88C378.152 869.232 373.208 867.408 367.064 867.408ZM459.317 960H419.573V954.384C422.741 952.848 425.909 951.696 429.077 950.928V863.664L418.133 862.512V856.896C419.381 856.32 421.109 855.744 423.317 855.168C425.525 854.592 427.877 854.112 430.373 853.728C432.965 853.248 435.509 852.864 438.005 852.576C440.597 852.192 442.901 851.904 444.917 851.712H449.813V950.928C452.981 951.696 456.149 952.848 459.317 954.384V960ZM530.602 939.12C530.602 941.232 530.602 943.056 530.602 944.592C530.698 946.128 530.842 947.76 531.034 949.488L540.97 950.928V955.968C539.818 956.544 538.234 957.12 536.218 957.696C534.298 958.272 532.234 958.848 530.026 959.424C527.914 959.904 525.802 960.288 523.69 960.576C521.578 960.96 519.706 961.248 518.074 961.44H513.178C512.218 959.232 511.642 957.024 511.45 954.816C511.258 952.608 511.114 949.92 511.018 946.752H510.298C509.818 948.672 509.002 950.544 507.85 952.368C506.698 954.096 505.21 955.68 503.386 957.12C501.658 958.464 499.594 959.568 497.194 960.432C494.794 961.296 492.106 961.728 489.13 961.728C485.962 961.728 483.034 961.248 480.346 960.288C477.658 959.328 475.306 957.984 473.29 956.256C471.274 954.528 469.69 952.464 468.538 950.064C467.386 947.568 466.81 944.784 466.81 941.712C466.81 937.392 467.626 933.84 469.258 931.056C470.89 928.272 473.434 926.016 476.89 924.288C480.442 922.464 484.954 921.12 490.426 920.256C495.994 919.392 502.714 918.768 510.586 918.384C511.354 910.128 511.018 904.08 509.578 900.24C508.138 896.4 505.018 894.48 500.218 894.48C497.242 894.48 494.506 894.96 492.01 895.92L485.242 913.2H478.906C478.138 912.048 477.37 910.752 476.602 909.312C475.93 907.776 475.258 906.192 474.586 904.56C474.01 902.832 473.482 901.104 473.002 899.376C472.618 897.648 472.33 895.968 472.138 894.336C475.786 891.84 480.49 889.872 486.25 888.432C492.01 886.992 498.106 886.272 504.538 886.272C510.01 886.272 514.474 886.896 517.93 888.144C521.386 889.296 524.074 890.928 525.994 893.04C528.01 895.056 529.402 897.456 530.17 900.24C530.938 903.024 531.322 906 531.322 909.168C531.322 914.928 531.178 920.16 530.89 924.864C530.698 929.472 530.602 934.224 530.602 939.12ZM498.202 950.208C500.218 950.208 501.946 949.824 503.386 949.056C504.826 948.288 506.026 947.376 506.986 946.32C508.042 945.264 508.81 944.112 509.29 942.864C509.866 941.616 510.298 940.512 510.586 939.552V925.152C506.074 925.248 502.378 925.536 499.498 926.016C496.618 926.496 494.362 927.312 492.73 928.464C491.098 929.52 489.946 930.912 489.274 932.64C488.698 934.272 488.41 936.288 488.41 938.688C488.41 942.336 489.274 945.168 491.002 947.184C492.73 949.2 495.13 950.208 498.202 950.208ZM608.742 948.336C608.07 950.256 606.966 952.032 605.43 953.664C603.894 955.2 602.022 956.592 599.814 957.84C597.702 959.088 595.254 960.048 592.47 960.72C589.782 961.392 586.95 961.728 583.974 961.728C577.638 961.728 572.166 960.864 567.558 959.136C563.046 957.312 559.302 954.768 556.326 951.504C553.35 948.144 551.142 944.16 549.702 939.552C548.262 934.848 547.542 929.664 547.542 924C547.542 911.808 550.854 902.496 557.478 896.064C564.198 889.536 573.702 886.272 585.99 886.272C590.694 886.272 595.014 886.8 598.95 887.856C602.886 888.816 606.15 889.968 608.742 891.312C608.55 892.944 608.262 894.768 607.878 896.784C607.59 898.704 607.206 900.672 606.726 902.688C606.342 904.608 605.862 906.528 605.286 908.448C604.71 910.272 604.134 911.808 603.558 913.056H596.502L590.454 895.92C589.782 895.44 589.062 895.104 588.294 894.912C587.526 894.624 586.374 894.48 584.838 894.48C582.342 894.48 580.182 894.96 578.358 895.92C576.534 896.784 574.95 898.32 573.606 900.528C572.358 902.736 571.398 905.664 570.726 909.312C570.15 912.96 569.862 917.472 569.862 922.848C569.862 926.784 570.294 930.432 571.158 933.792C572.022 937.056 573.318 939.936 575.046 942.432C576.87 944.832 579.126 946.752 581.814 948.192C584.502 949.536 587.67 950.208 591.318 950.208C594.678 950.208 597.606 949.728 600.102 948.768C602.598 947.808 604.71 946.656 606.438 945.312L608.742 948.336ZM680.703 947.904C679.935 949.536 678.687 951.216 676.959 952.944C675.327 954.576 673.263 956.064 670.767 957.408C668.367 958.656 665.535 959.664 662.271 960.432C659.103 961.296 655.647 961.728 651.903 961.728C645.951 961.728 640.671 960.864 636.063 959.136C631.455 957.312 627.615 954.768 624.543 951.504C621.471 948.144 619.119 944.16 617.487 939.552C615.951 934.944 615.183 929.76 615.183 924C615.183 911.712 618.399 902.352 624.831 895.92C631.263 889.488 640.191 886.272 651.615 886.272C656.511 886.272 661.071 886.944 665.295 888.288C669.615 889.632 673.167 891.84 675.951 894.912C678.831 897.984 680.799 902.016 681.855 907.008C683.007 912 682.959 918.096 681.711 925.296H637.503C637.599 932.88 639.519 938.928 643.263 943.44C647.103 947.952 652.719 950.208 660.111 950.208C663.279 950.208 666.543 949.728 669.903 948.768C673.359 947.808 676.047 946.56 677.967 945.024L680.703 947.904ZM651.039 894.48C649.119 894.48 647.391 894.816 645.855 895.488C644.415 896.16 643.119 897.408 641.967 899.232C640.911 900.96 640.047 903.36 639.375 906.432C638.703 909.408 638.223 913.2 637.935 917.808H661.119C661.791 910.32 661.359 904.56 659.823 900.528C658.287 896.496 655.359 894.48 651.039 894.48ZM817.307 960H779.147V954.384C780.299 953.712 781.499 953.088 782.747 952.512C783.995 951.936 785.435 951.408 787.067 950.928V921.84C787.067 913.584 786.251 907.536 784.619 903.696C783.083 899.76 780.011 897.792 775.403 897.792C771.563 897.792 768.299 899.136 765.611 901.824C762.923 904.416 761.003 907.44 759.851 910.896V950.928C761.387 951.312 762.731 951.744 763.883 952.224C765.131 952.704 766.427 953.424 767.771 954.384V960H729.611V954.384C732.587 952.848 735.755 951.696 739.115 950.928V863.664L728.171 862.512V856.896C729.611 856.32 731.435 855.744 733.643 855.168C735.947 854.592 738.347 854.112 740.843 853.728C743.339 853.248 745.835 852.864 748.331 852.576C750.827 852.192 753.035 851.904 754.955 851.712H759.851V902.544H759.995C760.955 900.336 762.251 898.272 763.883 896.352C765.515 894.336 767.339 892.608 769.355 891.168C771.467 889.632 773.723 888.432 776.123 887.568C778.523 886.704 781.067 886.272 783.755 886.272C787.595 886.272 791.003 886.752 793.979 887.712C797.051 888.576 799.595 890.16 801.611 892.464C803.627 894.768 805.163 897.888 806.219 901.824C807.275 905.664 807.803 910.56 807.803 916.512V950.928C809.435 951.312 811.067 951.744 812.699 952.224C814.331 952.704 815.867 953.424 817.307 954.384V960ZM823.448 924C823.448 918.144 824.312 912.912 826.04 908.304C827.864 903.6 830.408 899.616 833.672 896.352C837.032 893.088 841.064 890.592 845.768 888.864C850.472 887.136 855.8 886.272 861.752 886.272C868.472 886.272 874.232 887.232 879.032 889.152C883.928 890.976 887.912 893.568 890.984 896.928C894.152 900.192 896.456 904.176 897.896 908.88C899.336 913.488 900.056 918.528 900.056 924C900.056 929.856 899.192 935.136 897.464 939.84C895.736 944.448 893.192 948.384 889.832 951.648C886.568 954.912 882.536 957.408 877.736 959.136C873.032 960.864 867.704 961.728 861.752 961.728C855.224 961.728 849.56 960.816 844.76 958.992C839.96 957.072 835.976 954.48 832.808 951.216C829.64 947.856 827.288 943.872 825.752 939.264C824.216 934.56 823.448 929.472 823.448 924ZM845.768 924C845.768 928.32 846.008 932.304 846.488 935.952C847.064 939.504 848.024 942.528 849.368 945.024C850.712 947.52 852.536 949.488 854.84 950.928C857.144 952.272 860.12 952.944 863.768 952.944C865.88 952.944 867.8 952.464 869.528 951.504C871.256 950.448 872.744 948.816 873.992 946.608C875.24 944.304 876.152 941.328 876.728 937.68C877.4 933.936 877.736 929.376 877.736 924C877.736 919.584 877.448 915.6 876.872 912.048C876.392 908.496 875.48 905.472 874.136 902.976C872.888 900.48 871.16 898.56 868.952 897.216C866.744 895.776 863.96 895.056 860.6 895.056C858.104 895.056 855.944 895.584 854.12 896.64C852.296 897.6 850.76 899.232 849.512 901.536C848.264 903.744 847.304 906.72 846.632 910.464C846.056 914.112 845.768 918.624 845.768 924ZM948.692 960H908.948V954.384C912.116 952.848 915.284 951.696 918.452 950.928V863.664L907.508 862.512V856.896C908.756 856.32 910.484 855.744 912.692 855.168C914.9 854.592 917.252 854.112 919.748 853.728C922.34 853.248 924.884 852.864 927.38 852.576C929.972 852.192 932.276 851.904 934.292 851.712H939.188V950.928C942.356 951.696 945.524 952.848 948.692 954.384V960ZM1005.86 945.744C1005.38 947.856 1004.52 949.872 1003.27 951.792C1002.02 953.712 1000.54 955.44 998.809 956.976C997.081 958.416 995.113 959.568 992.905 960.432C990.697 961.296 988.345 961.728 985.849 961.728C976.345 961.728 969.097 958.752 964.105 952.8C959.209 946.752 956.761 937.536 956.761 925.152C956.761 918.816 957.625 913.296 959.353 908.592C961.081 903.792 963.481 899.76 966.553 896.496C969.721 893.232 973.513 890.784 977.929 889.152C982.345 887.52 987.241 886.704 992.617 886.704C994.345 886.704 995.785 886.752 996.937 886.848C998.185 886.944 999.289 887.088 1000.25 887.28C1001.3 887.376 1002.26 887.616 1003.13 888C1004.09 888.288 1005.14 888.624 1006.3 889.008V863.664L995.353 862.512V856.896C996.697 856.32 998.521 855.792 1000.82 855.312C1003.22 854.832 1005.72 854.4 1008.31 854.016C1010.9 853.536 1013.45 853.104 1015.94 852.72C1018.44 852.336 1020.5 852 1022.14 851.712H1027.03V949.776L1036.54 950.928V955.968C1035.19 956.64 1033.46 957.264 1031.35 957.84C1029.24 958.416 1027.03 958.944 1024.73 959.424C1022.42 959.904 1020.17 960.288 1017.96 960.576C1015.85 960.96 1014.07 961.248 1012.63 961.44H1007.74L1006.44 945.744H1005.86ZM992.761 950.208C996.121 950.208 998.953 949.152 1001.26 947.04C1003.56 944.928 1005.24 941.328 1006.3 936.24V897.504C1005.05 896.736 1003.46 896.112 1001.54 895.632C999.721 895.152 997.417 894.912 994.633 894.912C989.065 894.912 985.081 897.456 982.681 902.544C980.281 907.536 979.081 914.832 979.081 924.432C979.081 932.208 980.137 938.448 982.249 943.152C984.361 947.856 987.865 950.208 992.761 950.208ZM1108.48 947.904C1107.72 949.536 1106.47 951.216 1104.74 952.944C1103.11 954.576 1101.04 956.064 1098.55 957.408C1096.15 958.656 1093.32 959.664 1090.05 960.432C1086.88 961.296 1083.43 961.728 1079.68 961.728C1073.73 961.728 1068.45 960.864 1063.84 959.136C1059.24 957.312 1055.4 954.768 1052.32 951.504C1049.25 948.144 1046.9 944.16 1045.27 939.552C1043.73 934.944 1042.96 929.76 1042.96 924C1042.96 911.712 1046.18 902.352 1052.61 895.92C1059.04 889.488 1067.97 886.272 1079.4 886.272C1084.29 886.272 1088.85 886.944 1093.08 888.288C1097.4 889.632 1100.95 891.84 1103.73 894.912C1106.61 897.984 1108.58 902.016 1109.64 907.008C1110.79 912 1110.74 918.096 1109.49 925.296H1065.28C1065.38 932.88 1067.3 938.928 1071.04 943.44C1074.88 947.952 1080.5 950.208 1087.89 950.208C1091.06 950.208 1094.32 949.728 1097.68 948.768C1101.14 947.808 1103.83 946.56 1105.75 945.024L1108.48 947.904ZM1078.82 894.48C1076.9 894.48 1075.17 894.816 1073.64 895.488C1072.2 896.16 1070.9 897.408 1069.75 899.232C1068.69 900.96 1067.83 903.36 1067.16 906.432C1066.48 909.408 1066 913.2 1065.72 917.808H1088.9C1089.57 910.32 1089.14 904.56 1087.6 900.528C1086.07 896.496 1083.14 894.48 1078.82 894.48ZM1157.6 904.56C1156.45 905.136 1155.11 906.096 1153.57 907.44C1152.04 908.784 1150.64 910.992 1149.4 914.064V950.928C1151.32 951.12 1153.24 951.504 1155.16 952.08C1157.08 952.56 1159 953.328 1160.92 954.384V960H1119.16V954.384C1120.88 953.424 1122.52 952.704 1124.05 952.224C1125.59 951.744 1127.12 951.312 1128.66 950.928V898.224L1119.16 897.072V891.456C1120.69 890.784 1122.56 890.16 1124.77 889.584C1127.08 889.008 1129.43 888.528 1131.83 888.144C1134.23 887.664 1136.53 887.28 1138.74 886.992C1141.04 886.704 1142.96 886.464 1144.5 886.272H1149.4V905.424H1149.97C1150.74 903.312 1151.84 901.104 1153.28 898.8C1154.82 896.496 1156.6 894.384 1158.61 892.464C1160.63 890.544 1162.84 889.008 1165.24 887.856C1167.64 886.704 1170.13 886.176 1172.72 886.272C1173.78 887.616 1174.69 889.536 1175.46 892.032C1176.23 894.432 1176.85 896.736 1177.33 898.944V904.56H1157.6Z" fill="#515151"/>
</g>
<defs>
<clipPath id="clip0_233_25">
<rect width="1500" height="1920" rx="20" fill="white"/>
</clipPath>
</defs>
</svg>
