<svg width="27" height="27" viewBox="0 0 27 27" fill="none" xmlns="http://www.w3.org/2000/svg">
<path d="M10.8984 15.918C10.8984 14.8047 10.1953 14.3359 9.14062 14.3359H6.44531V17.4414H9.08203C10.0781 17.4414 10.8984 17.0898 10.8984 15.918ZM10.4297 11.1133C10.4297 10.0586 9.66797 9.82422 8.73047 9.82422H6.44531V12.4609H8.96484C9.84375 12.4609 10.4297 12.0508 10.4297 11.1133ZM18.2227 12.4609C17.1094 12.4609 16.4062 13.1641 16.3477 14.2188H19.9805C19.8633 13.1641 19.3359 12.4609 18.2227 12.4609ZM26.25 3.4375C26.25 1.91406 24.9609 0.625 23.4375 0.625H2.8125C1.23047 0.625 0 1.91406 0 3.4375V24.0625C0 25.6445 1.23047 26.875 2.8125 26.875H23.4375C24.9609 26.875 26.25 25.6445 26.25 24.0625V3.4375ZM15.8789 9.58984V8.53516H20.4492V9.58984H15.8789ZM13.3594 16.0938C13.3594 18.3789 11.4844 19.3164 9.43359 19.375H3.98438V8.125H9.25781C11.1914 8.125 12.832 8.65234 12.832 10.8789C12.832 11.9922 12.3047 12.5781 11.3086 13.0469C12.7148 13.457 13.3594 14.6875 13.3594 16.0938ZM22.2656 15.2148C22.2656 15.332 22.207 15.5078 22.207 15.625H16.3477C16.3477 16.9141 17.0508 17.6758 18.3398 17.6758C19.043 17.6758 19.9219 17.3242 20.0977 16.6211H22.0898C21.5039 18.4961 20.2148 19.375 18.2812 19.375C15.7031 19.375 14.1211 17.6172 14.1211 15.0977C14.1211 12.6367 15.8203 10.8203 18.2812 10.8203C20.8008 10.8203 22.2656 12.8125 22.2656 15.2148Z" fill="black"/>
</svg>
